<svg width="419" height="419" viewBox="0 0 419 419" fill="none" xmlns="http://www.w3.org/2000/svg">
<path d="M209.64 418.35C325.018 418.35 418.55 324.818 418.55 209.44C418.55 94.0622 325.018 0.530029 209.64 0.530029C94.2622 0.530029 0.72998 94.0622 0.72998 209.44C0.72998 324.818 94.2622 418.35 209.64 418.35Z" fill="#BAD1ED"/>
<mask id="mask0_7_109" style="mask-type:luminance" maskUnits="userSpaceOnUse" x="0" y="0" width="419" height="419">
<path d="M209.64 418.35C325.018 418.35 418.55 324.818 418.55 209.44C418.55 94.0622 325.018 0.530029 209.64 0.530029C94.2622 0.530029 0.72998 94.0622 0.72998 209.44C0.72998 324.818 94.2622 418.35 209.64 418.35Z" fill="white"/>
</mask>
<g mask="url(#mask0_7_109)">
<path d="M104.5 361.85L247.82 505.17L451.01 301.98L318.92 169.89L104.5 361.85Z" fill="#7698C9"/>
</g>
<path d="M223.92 281.05L235.48 312.89L298.48 181.43L163.48 236.53L200.82 252.66C177.276 275.586 150.883 295.392 122.29 311.59C116.48 314.91 110.51 318.09 104.45 321.21V361.85C116.67 356.12 128.52 350.04 139.88 343.55C170.388 326.3 198.62 305.304 223.92 281.05Z" fill="#BAD1ED"/>
<path d="M182.42 341.49C187.01 345.83 192.126 349.576 197.65 352.64C205.886 357.187 214.685 360.63 223.82 362.88C233.957 365.415 244.371 366.672 254.82 366.62C274.34 366.62 291.787 361.953 307.16 352.62C322.554 343.284 335.127 329.947 343.54 314.03C352.413 297.63 356.847 278.793 356.84 257.52C356.833 236.247 352.323 217.347 343.31 200.82C334.779 184.795 322.056 171.388 306.5 162.03C290.973 152.697 273.007 148.03 252.6 148.03C242.866 147.99 233.171 149.248 223.77 151.77C215.04 154.111 206.696 157.709 199 162.45C194.922 164.985 191.065 167.858 187.47 171.04V92.8L104.5 40V321.21C110.56 318.09 116.5 314.91 122.34 311.59C150.933 295.392 177.326 275.586 200.87 252.66L163.53 236.53L298.53 181.43L235.53 312.89L223.97 281.05C198.683 305.301 170.464 326.297 139.97 343.55C128.61 350.04 116.76 356.12 104.54 361.85H179.95L182.42 341.49Z" fill="white"/>
</svg>
